<svg width="643" height="615" viewBox="0 0 643 615" fill="none" xmlns="http://www.w3.org/2000/svg">
<path d="M64.1328 271.06V424.804V425.073L96.2751 406.516V288.06L151.142 252.906V375.474L182.628 357.296V109.013L235.598 74.0373V326.918L266.382 309.145V53.9614L318.141 17.7307L295.212 0L151.142 92.9784V215.656L64.1328 271.06Z" fill="#5F7779"/>
<path d="M461.034 250.539L400.945 316.488V460.068H403.302H461.034V250.539Z" fill="#275161"/>
<path d="M485.223 460.487V246.377L546.353 289.086V460.487H485.223Z" fill="#275161"/>
<path d="M318.141 279.86V17.7373L378.19 54.6772V245.572L318.141 279.86Z" fill="#275161"/>
<path d="M464.107 110.145L404.648 70.3494V230.854L464.107 196.525V110.145Z" fill="#275161"/>
<path d="M317.764 460.068V408.698L379.266 339.89V460.068H317.764Z" fill="#275161"/>
<path d="M270.129 460.068H217.063L461.038 250.542L270.129 460.068Z" fill="#5E767A"/>
<path d="M574.941 132.349L0 460.487L64.1765 458.315L574.941 132.349Z" fill="#5F7779"/>
<path d="M165.258 451.32C165.258 447.133 164.996 443.796 164.473 441.309C164.08 438.823 163.099 436.86 161.528 435.421C159.958 433.981 157.734 433 154.855 432.476C151.976 431.953 148.181 431.56 143.47 431.299V426.784H210.012V431.299C205.301 431.429 201.506 431.822 198.627 432.476C195.748 433 193.524 433.981 191.953 435.421C190.383 436.86 189.336 438.888 188.813 441.506C188.289 443.992 188.027 447.263 188.027 451.32V551.035C188.027 555.092 188.289 558.428 188.813 561.046C189.467 563.532 190.579 565.495 192.15 566.934C193.72 568.374 195.944 569.421 198.823 570.075C201.702 570.598 205.432 570.926 210.012 571.056V575.178H143.47V571.056C148.181 570.926 151.976 570.598 154.855 570.075C157.734 569.421 159.893 568.374 161.332 566.934C162.902 565.495 163.949 563.532 164.473 561.046C164.996 558.559 165.258 555.222 165.258 551.035V451.32ZM238.042 491.374C238.042 488.54 237.909 486.283 237.644 484.6C237.378 482.918 236.758 481.634 235.784 480.749C234.899 479.775 233.571 479.111 231.8 478.757C230.118 478.402 227.771 478.093 224.761 477.827V474.772H265.667C275.141 474.772 283.641 475.923 291.167 478.225C298.693 480.439 305.024 483.671 310.159 487.921C315.383 492.171 319.368 497.395 322.112 503.593C324.857 509.79 326.23 516.785 326.23 524.577C326.23 532.28 324.769 539.452 321.847 546.093C318.925 552.733 314.808 558.311 309.495 562.827C304.802 566.723 298.737 569.777 291.3 571.991C283.951 574.116 276.071 575.178 267.659 575.178H224.761V572.389C227.683 572.212 229.985 571.947 231.667 571.593C233.438 571.15 234.766 570.441 235.651 569.468C236.625 568.405 237.245 567.033 237.511 565.35C237.865 563.668 238.042 561.499 238.042 558.843V491.374ZM253.448 563.358C253.448 565.837 253.98 567.52 255.042 568.405C256.193 569.202 258.23 569.6 261.151 569.6C267.969 569.6 273.68 569.158 278.284 568.272C282.977 567.298 287.271 565.66 291.167 563.358C303.563 556.275 309.761 543.702 309.761 525.639C309.761 517.316 308.167 509.923 304.98 503.46C301.881 496.996 297.276 491.728 291.167 487.655C287.448 485.176 283.154 483.361 278.284 482.21C273.503 481.059 267.792 480.483 261.151 480.483C258.141 480.483 256.105 480.882 255.042 481.678C253.98 482.475 253.448 484.025 253.448 486.327V563.358ZM422.28 575.178H340.467V572.389C343.212 572.212 345.425 571.902 347.108 571.46C348.879 571.017 350.207 570.309 351.092 569.335C352.066 568.361 352.73 567.033 353.084 565.35C353.438 563.668 353.616 561.499 353.616 558.843V491.374C353.616 488.718 353.438 486.548 353.084 484.866C352.819 483.184 352.199 481.856 351.225 480.882C350.251 479.908 348.879 479.199 347.108 478.757C345.425 478.314 343.212 478.004 340.467 477.827V474.772H420.951L421.217 496.553H417.631C416.923 493.1 416.126 490.356 415.241 488.319C414.355 486.194 413.071 484.556 411.389 483.405C409.795 482.254 407.626 481.501 404.881 481.147C402.225 480.793 398.772 480.616 394.522 480.616H374.069C372.032 480.616 370.66 480.926 369.951 481.546C369.332 482.165 369.022 483.582 369.022 485.796V519.397H392.264C395.363 519.397 397.886 519.22 399.834 518.866C401.782 518.512 403.332 517.848 404.483 516.874C405.722 515.811 406.652 514.35 407.272 512.491C407.892 510.632 408.467 508.152 408.998 505.053H412.584V540.249H408.998C408.467 537.061 407.892 534.538 407.272 532.678C406.652 530.731 405.767 529.27 404.616 528.296C403.464 527.233 401.915 526.525 399.967 526.171C398.019 525.816 395.451 525.639 392.264 525.639H369.022V563.093C369.022 564.598 369.11 565.705 369.287 566.413C369.464 567.121 369.774 567.652 370.217 568.007C370.925 568.449 372.608 568.848 375.264 569.202C378.009 569.468 381.241 569.6 384.959 569.6H389.209C394.61 569.6 399.126 569.335 402.756 568.803C406.475 568.272 409.618 567.254 412.186 565.749C414.842 564.244 417.144 562.207 419.092 559.639C421.04 557.072 422.944 553.707 424.803 549.546H429.186L422.28 575.178ZM545.291 575.178H506.642V572.389C507.97 572.389 509.077 572.389 509.962 572.389C510.848 572.301 511.556 572.212 512.087 572.124C512.707 571.947 513.238 571.814 513.681 571.725C514.124 571.548 514.567 571.327 515.009 571.061C515.718 570.619 516.249 570.087 516.603 569.468C517.046 568.759 517.267 568.051 517.267 567.343C517.267 564.863 516.293 561.41 514.345 556.983L507.97 542.507H468.392L461.353 560.171C460.999 561.145 460.689 562.163 460.423 563.225C460.246 564.199 460.158 565.173 460.158 566.147C460.158 568.184 460.955 569.733 462.548 570.796C464.142 571.858 466.798 572.389 470.517 572.389V575.178H440.369V572.389C442.228 572.301 443.822 571.991 445.15 571.46C446.478 570.928 447.806 569.822 449.134 568.139C450.462 566.369 451.879 563.889 453.384 560.702C454.978 557.426 456.97 552.999 459.361 547.421L490.837 473.046H493.759L531.611 559.108C532.85 561.941 533.913 564.199 534.798 565.882C535.772 567.564 536.746 568.892 537.72 569.866C538.694 570.751 539.757 571.371 540.908 571.725C542.147 572.08 543.608 572.301 545.291 572.389V575.178ZM505.978 536.397L488.447 494.561L470.916 536.397H505.978Z" fill="#275161"/>
</svg>
